HIERARCHY
ROOT Hips
{
	OFFSET 50.276402 -12.921617 100.536003
	CHANNELS 6 Xposition Yposition Zposition Xrotation Yrotation Zrotation
	JOINT spine
	{
		OFFSET 0.000000 -0.507026 8.817039
		CHANNELS 3 Xrotation Yrotation Zrotation
		JOINT spine1
		{
			OFFSET 0.000000 -0.000002 10.776596
			CHANNELS 3 Xrotation Yrotation Zrotation
			JOINT spine2
			{
				OFFSET 0.000000 -0.000001 10.325897
				CHANNELS 3 Xrotation Yrotation Zrotation
				JOINT Neck
				{
					OFFSET 0.000000 -1.263955 26.511002
					CHANNELS 3 Xrotation Yrotation Zrotation
					JOINT Head
					{
						OFFSET 0.000000 -0.000001 8.009659
						CHANNELS 3 Xrotation Yrotation Zrotation
						End Site
						{
							OFFSET 0.000000 6.393857 19.387894
						}
					}
				}
				JOINT RightShoulder
				{
					OFFSET -4.347950 0.605420 11.151199
					CHANNELS 3 Xrotation Yrotation Zrotation
					JOINT RightArm
					{
						OFFSET 0.000000 -0.000003 14.625793
						CHANNELS 3 Xrotation Yrotation Zrotation
						JOINT RightArmRoll
						{
							OFFSET 0.000000 -0.000001 7.383408
							CHANNELS 3 Xrotation Yrotation Zrotation
							JOINT RightForeArm
							{
								OFFSET 0.000000 -0.000004 21.505203
								CHANNELS 3 Xrotation Yrotation Zrotation
								JOINT RightForeArmRoll
								{
									OFFSET 0.000000 -0.000001 8.285324
									CHANNELS 3 Xrotation Yrotation Zrotation
									JOINT RightHand
									{
										OFFSET 0.000000 -0.000003 16.626801
										CHANNELS 3 Xrotation Yrotation Zrotation
										End Site
										{
											OFFSET 0.000000 0.000000 0.100006
										}
									}
								}
							}
						}
					}
				}
				JOINT LeftShoulder
				{
					OFFSET 4.347950 0.605420 11.151199
					CHANNELS 3 Xrotation Yrotation Zrotation
					JOINT LeftArm
					{
						OFFSET 0.000000 -0.000003 14.625793
						CHANNELS 3 Xrotation Yrotation Zrotation
						JOINT LeftArmRoll
						{
							OFFSET 0.000000 -0.000001 7.383392
							CHANNELS 3 Xrotation Yrotation Zrotation
							JOINT LeftForeArm
							{
								OFFSET 0.000000 -0.000004 21.505203
								CHANNELS 3 Xrotation Yrotation Zrotation
								JOINT LeftForeArmRoll
								{
									OFFSET 0.000000 -0.000001 8.285324
									CHANNELS 3 Xrotation Yrotation Zrotation
									JOINT LeftHand
									{
										OFFSET 0.000000 -0.000003 16.626801
										CHANNELS 3 Xrotation Yrotation Zrotation
										End Site
										{
											OFFSET 0.000000 0.000000 0.100006
										}
									}
								}
							}
						}
					}
				}
			}
		}
	}
	JOINT RightUpLeg
	{
		OFFSET -7.815102 1.202170 -1.433090
		CHANNELS 3 Xrotation Yrotation Zrotation
		JOINT RightUpLegRoll
		{
			OFFSET 0.000000 -0.000003 19.495903
			CHANNELS 3 Xrotation Yrotation Zrotation
			JOINT RightLeg
			{
				OFFSET 0.000000 0.000004 -24.142700
				CHANNELS 3 Xrotation Yrotation Zrotation
				JOINT RightLegRoll
				{
					OFFSET 0.000000 -0.000004 24.221703
					CHANNELS 3 Xrotation Yrotation Zrotation
					JOINT RightFoot
					{
						OFFSET 0.000000 -0.000004 20.160500
						CHANNELS 3 Xrotation Yrotation Zrotation
						JOINT RightToeBase
						{
							OFFSET 0.000000 -0.000003 16.853195
							CHANNELS 3 Xrotation Yrotation Zrotation
							End Site
							{
								OFFSET 0.007145 0.940780 8.161865
							}
						}
					}
				}
			}
		}
	}
	JOINT LeftUpLeg
	{
		OFFSET 7.815102 1.202170 -1.433090
		CHANNELS 3 Xrotation Yrotation Zrotation
		JOINT LeftUpLegRoll
		{
			OFFSET 0.000000 -0.000003 19.496002
			CHANNELS 3 Xrotation Yrotation Zrotation
			JOINT LeftLeg
			{
				OFFSET 0.000000 -0.000004 24.142601
				CHANNELS 3 Xrotation Yrotation Zrotation
				JOINT LeftLegRoll
				{
					OFFSET 0.000000 -0.000005 24.445602
					CHANNELS 3 Xrotation Yrotation Zrotation
					JOINT LeftFoot
					{
						OFFSET 0.000000 -0.000003 19.936600
						CHANNELS 3 Xrotation Yrotation Zrotation
						JOINT LeftToeBase
						{
							OFFSET 0.000000 -0.000003 16.853195
							CHANNELS 3 Xrotation Yrotation Zrotation
							End Site
							{
								OFFSET -0.032013 0.940779 8.161865
							}
						}
					}
				}
			}
		}
	}
}
MOTION
Frames: 10
Frame Time: 0.041667
52.072701 -12.394224 100.602982 -1.196771 2.057671 1.438788 -2.233379 -0.415475 -0.083618 -0.464610 -0.813224 -0.179112 1.180530 -0.815591 -0.169356 27.024094 1.356742 0.471995 -7.028465 4.841469 0.386237 -9.373737 -70.116523 -11.764580 -55.970477 -112.656116 -41.389495 0.000001 -0.000000 -0.000000 0.124179 -14.638571 -0.395094 -0.000003 0.000010 -3.031700 -5.000229 -7.998774 0.000162 -8.455343 61.257562 10.164446 -35.697536 115.226207 26.699635 0.000004 0.000005 -0.000002 1.943831 10.144582 0.354113 0.000000 0.000011 3.001909 -5.000240 7.998782 -0.000144 -0.713510 179.250064 -1.528060 -179.999991 0.000005 -1.002999 174.426352 -1.907941 -0.450155 -0.000001 0.000001 0.038457 68.387003 6.884935 2.197808 25.456919 -7.353117 -0.011174 -0.628115 175.812252 1.256940 -0.000005 -0.000004 -1.096790 -9.536023 2.612317 0.567607 -0.000004 -0.000000 -0.186033 71.214899 -6.835357 -2.119681 25.875425 7.348169 -0.535621 
52.062401 -12.412225 100.605988 -1.201513 2.067575 1.387885 -2.237389 -0.416038 -0.086351 -0.472649 -0.815361 -0.184637 1.172490 -0.817775 -0.174855 27.128791 1.361404 0.480411 -7.072656 4.838677 0.398186 -9.326259 -70.163576 -11.714779 -56.063610 -112.621644 -41.484639 -0.000001 -0.000001 -0.000001 0.124178 -14.649472 -0.392155 -0.000002 0.000010 -3.031349 -5.000230 -7.998774 0.000163 -8.435862 61.277500 10.143207 -35.691615 115.201468 26.700596 0.000007 0.000006 -0.000003 1.923066 10.157996 0.354251 -0.000000 0.000012 3.001909 -5.000238 7.998782 -0.000145 -0.715534 179.240051 -1.530529 -179.999991 0.000005 -1.003000 174.419098 -1.910907 -0.450689 -0.000001 0.000001 0.038457 68.384257 6.884916 2.197776 25.456916 -7.353117 -0.011173 -0.626290 175.802253 1.247646 -0.000005 -0.000004 -1.096770 -9.564405 2.615207 0.568816 -0.000004 -0.000000 -0.186183 71.230165 -6.835074 -2.119598 25.886934 7.348163 -0.535050 
52.062199 -12.405624 100.610985 -1.206003 2.077199 1.337320 -2.241521 -0.416513 -0.089137 -0.480938 -0.817363 -0.190268 1.164199 -0.819824 -0.180461 27.235296 1.367051 0.489079 -7.119071 4.834807 0.410654 -9.274076 -70.212173 -11.659861 -56.157030 -112.587226 -41.578684 0.000003 0.000000 -0.000001 0.124178 -14.659772 -0.389398 -0.000001 0.000011 -3.030990 -5.000229 -7.998773 0.000163 -8.417482 61.298557 10.123340 -35.688770 115.175253 26.704125 0.000005 0.000006 -0.000003 1.900412 10.171420 0.354521 0.000000 0.000012 3.001910 -5.000238 7.998782 -0.000144 -0.717797 179.230051 -1.532784 -179.999991 0.000005 -1.003000 174.411858 -1.913862 -0.450224 -0.000001 0.000001 0.038457 68.381422 6.884923 2.197754 25.456914 -7.353116 -0.011174 -0.624550 175.793251 1.238596 -0.000005 -0.000004 -1.096740 -9.591977 2.618150 0.569982 -0.000004 -0.000000 -0.186289 71.244563 -6.834759 -2.119661 25.898955 7.348164 -0.534414 
52.054295 -12.405425 100.607986 -1.210315 2.086624 1.286986 -2.245742 -0.416930 -0.091961 -0.489403 -0.819271 -0.195973 1.155738 -0.821779 -0.186144 27.343015 1.373384 0.497932 -7.167045 4.830175 0.423480 -9.218498 -70.261924 -11.601269 -56.254609 -112.551689 -41.676206 -0.000001 -0.000000 -0.000000 0.124177 -14.669769 -0.386764 -0.000002 0.000011 -3.030640 -5.000229 -7.998773 0.000164 -8.399919 61.320475 10.104479 -35.689193 115.147632 26.710624 0.000005 0.000004 -0.000003 1.876410 10.184751 0.354900 -0.000000 0.000012 3.001910 -5.000241 7.998781 -0.000144 -0.720225 179.221049 -1.534908 -179.999991 0.000005 -1.003000 174.404591 -1.916829 -0.450760 -0.000001 0.000001 0.038457 68.378684 6.884904 2.197719 25.456918 -7.353117 -0.011173 -0.622875 175.784248 1.229731 -0.000005 -0.000004 -1.096700 -9.618990 2.621126 0.571120 -0.000004 -0.000000 -0.186366 71.258243 -6.834506 -2.119683 25.911287 7.348164 -0.533703 
52.046295 -12.408520 100.614990 -1.214532 2.095939 1.236806 -2.250014 -0.417311 -0.094806 -0.497970 -0.821123 -0.201720 1.147168 -0.823680 -0.191869 27.451539 1.380141 0.506865 -7.215898 4.825104 0.436506 -9.160903 -70.312358 -11.540471 -56.352493 -112.516213 -41.773553 0.000000 -0.000000 -0.000001 0.124180 -14.679468 -0.384202 -0.000004 0.000010 -3.030291 -5.000230 -7.998774 0.000164 -8.382747 61.342755 10.086119 -35.690027 115.120134 26.717193 0.000006 0.000005 -0.000003 1.851646 10.198085 0.355341 0.000001 0.000011 3.001910 -5.000239 7.998782 -0.000145 -0.722750 179.212061 -1.536950 -179.999991 0.000005 -1.002999 174.397378 -1.919796 -0.451294 -0.000001 0.000001 0.038457 68.375945 6.884920 2.197595 25.456918 -7.353116 -0.011174 -0.621236 175.775260 1.220967 -0.000005 -0.000004 -1.096650 -9.645694 2.624124 0.572243 -0.000005 -0.000000 -0.186425 71.271699 -6.834221 -2.119710 25.923916 7.348162 -0.532981 
52.039898 -12.430122 100.612984 -1.218711 2.105234 1.186647 -2.254300 -0.417683 -0.097656 -0.506559 -0.822961 -0.207479 1.138579 -0.825565 -0.197606 27.560165 1.387034 0.515793 -7.264979 4.819918 0.449579 -9.102499 -70.362806 -11.478812 -56.452729 -112.480266 -41.873274 -0.000001 -0.000000 0.000000 0.124179 -14.689169 -0.381656 -0.000002 0.000010 -3.029930 -5.000228 -7.998773 0.000163 -8.365692 61.365247 10.067888 -35.691054 115.092676 26.723860 0.000005 0.000005 -0.000003 1.826683 10.211419 0.355803 -0.000002 0.000011 3.001911 -5.000240 7.998782 -0.000145 -0.725294 179.203072 -1.538971 -179.999991 0.000005 -1.003000 174.390166 -1.922749 -0.450831 -0.000001 0.000001 0.038457 68.373206 6.884897 2.197561 25.456921 -7.353115 -0.011174 -0.619601 175.766244 1.212225 -0.000005 -0.000004 -1.096600 -9.672304 2.627130 0.573365 -0.000005 -0.000000 -0.186480 71.284963 -6.833997 -2.119660 25.936539 7.348159 -0.532250 
52.036098 -12.431222 100.614998 -1.222955 2.114598 1.136433 -2.258563 -0.418072 -0.100495 -0.515099 -0.824824 -0.213217 1.130048 -0.827476 -0.203321 27.668388 1.393778 0.524653 -7.313609 4.814913 0.462536 -9.044727 -70.412980 -11.417832 -56.551275 -112.444933 -41.971352 -0.000000 -0.000000 0.000000 0.124180 -14.698970 -0.379077 -0.000001 0.000011 -3.029580 -5.000229 -7.998775 0.000163 -8.348411 61.387534 10.049391 -35.691717 115.065110 26.730333 0.000006 0.000005 -0.000003 1.802109 10.224749 0.356252 -0.000002 0.000012 3.001910 -5.000240 7.998782 -0.000144 -0.727796 179.194070 -1.541042 -179.999991 0.000005 -1.003000 174.382939 -1.925716 -0.451367 -0.000001 0.000001 0.038456 68.370467 6.884912 2.197434 25.456916 -7.353117 -0.011173 -0.617954 175.757242 1.203430 -0.000005 -0.000004 -1.096560 -9.699077 2.630116 0.574497 -0.000003 -0.000000 -0.186543 71.298425 -6.833731 -2.119689 25.949067 7.348164 -0.531525 
52.030800 -12.442725 100.616989 -1.227314 2.124112 1.086038 -2.262751 -0.418503 -0.103309 -0.523515 -0.826750 -0.218903 1.121627 -0.829451 -0.208984 27.775710 1.400080 0.533354 -7.361134 4.810425 0.475228 -8.988969 -70.462315 -11.359052 -56.648124 -112.410222 -42.068262 0.000001 -0.000000 0.000000 0.124180 -14.708969 -0.376409 -0.000002 0.000010 -3.029220 -5.000228 -7.998776 0.000164 -8.330489 61.409158 10.030090 -35.690730 115.038253 26.735427 0.000006 0.000005 -0.000003 1.778477 10.238072 0.356651 -0.000000 0.000012 3.001910 -5.000241 7.998782 -0.000144 -0.730175 179.184071 -1.543191 -179.999991 0.000005 -1.003000 174.375686 -1.928684 -0.450908 -0.000001 0.000001 0.038457 68.367639 6.884920 2.197412 25.456916 -7.353115 -0.011173 -0.616258 175.748240 1.194511 -0.000005 -0.000004 -1.096520 -9.726250 2.633076 0.575655 -0.000004 -0.000000 -0.186628 71.312414 -6.833456 -2.119586 25.961289 7.348166 -0.530833 
52.025501 -12.448926 100.609993 -1.231874 2.133867 1.035380 -2.266849 -0.419002 -0.106079 -0.531728 -0.828783 -0.224506 1.113417 -0.831530 -0.214563 27.881725 1.405663 0.541821 -7.406873 4.806774 0.487499 -8.936618 -70.510351 -11.303967 -56.743415 -112.376208 -42.164530 -0.000002 0.000000 0.000000 0.124180 -14.719469 -0.373594 -0.000003 0.000010 -3.028869 -5.000228 -7.998775 0.000162 -8.311635 61.429833 10.009646 -35.687916 115.012039 26.739142 0.000005 0.000005 -0.000003 1.756378 10.251484 0.356951 -0.000001 0.000012 3.001910 -5.000241 7.998784 -0.000144 -0.732363 179.175068 -1.545515 -179.999991 0.000005 -1.003000 174.368446 -1.930644 -0.451348 -0.000001 0.000001 0.038457 68.364900 6.884936 2.197285 25.456916 -7.353116 -0.011173 -0.614493 175.739251 1.185386 -0.000005 -0.000004 -1.096490 -9.754073 2.636001 0.576853 -0.000003 -0.000000 -0.186748 71.327051 -6.833165 -2.119642 25.973212 7.348163 -0.530229 
52.018200 -12.441323 100.610985 -1.236715 2.143961 0.984347 -2.270814 -0.419595 -0.108792 -0.539667 -0.830960 -0.229993 1.105477 -0.833754 -0.220024 27.985722 1.410237 0.549973 -7.450174 4.804272 0.499198 -8.889101 -70.556605 -11.254133 -56.836979 -112.342808 -42.260477 -0.000002 0.000001 0.000001 0.124178 -14.730669 -0.370585 -0.000001 0.000011 -3.028521 -5.000230 -7.998773 0.000162 -8.291476 61.449265 9.987588 -35.680136 114.987942 26.738410 0.000004 0.000005 -0.000003 1.736363 10.264987 0.357121 -0.000002 0.000012 3.001910 -5.000242 7.998782 -0.000143 -0.734295 179.164085 -1.548046 -179.999991 0.000005 -1.002999 174.361192 -1.933611 -0.451887 -0.000001 0.000001 0.038457 68.362154 6.884914 2.197252 25.456912 -7.353117 -0.011174 -0.612634 175.729238 1.175984 -0.000005 -0.000004 -1.096480 -9.782767 2.638869 0.578104 -0.000005 -0.000000 -0.186915 71.342644 -6.832860 -2.119635 25.984529 7.348164 -0.529696 
